<svg xmlns="http://www.w3.org/2000/svg" viewBox="0 0 1600 900" role="img" aria-label="抽象桥梁连接">
  <defs>
    <linearGradient id="bg" x1="0" y1="0" x2="0" y2="1">
      <stop offset="0" stop-color="#0d1a2b"/>
      <stop offset="1" stop-color="#0a1320"/>
    </linearGradient>
  </defs>
  <rect width="1600" height="900" fill="url(#bg)"/>
  <g fill="none" stroke="#c6a865" stroke-width="2.5" opacity="0.85">
    <path d="M120 560 Q 800 300 1480 560"/>
    <line x1="120" y1="560" x2="1480" y2="560"/>
  </g>
  <g stroke="#c6a865" stroke-width="1" opacity="0.4">
    <line x1="260" y1="512" x2="260" y2="560"/><line x1="400" y1="470" x2="400" y2="560"/>
    <line x1="540" y1="435" x2="540" y2="560"/><line x1="680" y1="410" x2="680" y2="560"/>
    <line x1="820" y1="402" x2="820" y2="560"/><line x1="960" y1="410" x2="960" y2="560"/>
    <line x1="1100" y1="435" x2="1100" y2="560"/><line x1="1240" y1="470" x2="1240" y2="560"/>
    <line x1="1380" y1="512" x2="1380" y2="560"/>
  </g>
  <g fill="none" stroke="#c6a865" stroke-width="2.5" opacity="0.7">
    <line x1="120" y1="560" x2="120" y2="760"/>
    <line x1="1480" y1="560" x2="1480" y2="760"/>
  </g>
  <line x1="60" y1="760" x2="1540" y2="760" stroke="#c6a865" stroke-width="1.5" opacity="0.5"/>
</svg>
