<svg xmlns="http://www.w3.org/2000/svg" viewBox="0 0 1600 900" role="img" aria-label="抽象资本流动网络">
  <defs>
    <linearGradient id="bg" x1="0" y1="0" x2="0" y2="1">
      <stop offset="0" stop-color="#0d1a2b"/>
      <stop offset="1" stop-color="#0a1320"/>
    </linearGradient>
  </defs>
  <rect width="1600" height="900" fill="url(#bg)"/>
  <g stroke="#c6a865" stroke-width="1.5" opacity="0.4" fill="none">
    <line x1="260" y1="300" x2="640" y2="480"/>
    <line x1="260" y1="300" x2="560" y2="640"/>
    <line x1="640" y1="480" x2="980" y2="280"/>
    <line x1="640" y1="480" x2="1040" y2="560"/>
    <line x1="560" y1="640" x2="1040" y2="560"/>
    <line x1="980" y1="280" x2="1340" y2="420"/>
    <line x1="1040" y1="560" x2="1340" y2="420"/>
    <line x1="1040" y1="560" x2="1180" y2="720"/>
  </g>
  <g fill="#0a1320" stroke="#c6a865" stroke-width="2.5">
    <circle cx="260" cy="300" r="26"/>
    <circle cx="640" cy="480" r="34"/>
    <circle cx="560" cy="640" r="22"/>
    <circle cx="980" cy="280" r="28"/>
    <circle cx="1040" cy="560" r="34"/>
    <circle cx="1340" cy="420" r="26"/>
    <circle cx="1180" cy="720" r="20"/>
  </g>
  <g fill="#c6a865">
    <circle cx="640" cy="480" r="8"/>
    <circle cx="1040" cy="560" r="8"/>
  </g>
</svg>
