<svg xmlns="http://www.w3.org/2000/svg" viewBox="0 0 1600 900" role="img" aria-label="抽象城市街区俯视">
  <defs>
    <linearGradient id="bg" x1="0" y1="0" x2="0" y2="1">
      <stop offset="0" stop-color="#0d1a2b"/>
      <stop offset="1" stop-color="#0a1320"/>
    </linearGradient>
  </defs>
  <rect width="1600" height="900" fill="url(#bg)"/>
  <g fill="none" stroke="#c6a865" stroke-width="2" opacity="0.7">
    <rect x="200" y="180" width="220" height="160"/>
    <rect x="470" y="180" width="160" height="160"/>
    <rect x="680" y="180" width="240" height="160"/>
    <rect x="200" y="390" width="160" height="200"/>
    <rect x="410" y="390" width="220" height="200"/>
    <rect x="680" y="390" width="240" height="200"/>
    <rect x="980" y="180" width="200" height="240"/>
    <rect x="980" y="470" width="200" height="120"/>
    <rect x="1230" y="180" width="170" height="410"/>
    <rect x="200" y="640" width="470" height="120"/>
    <rect x="720" y="640" width="460" height="120"/>
    <rect x="1230" y="640" width="170" height="120"/>
  </g>
  <g stroke="#c6a865" stroke-width="1" opacity="0.25">
    <line x1="150" y1="365" x2="1450" y2="365"/>
    <line x1="150" y1="615" x2="1450" y2="615"/>
    <line x1="655" y1="140" x2="655" y2="780"/>
    <line x1="955" y1="140" x2="955" y2="780"/>
  </g>
</svg>
