<svg xmlns="http://www.w3.org/2000/svg" viewBox="0 0 1600 900" role="img" aria-label="抽象城市天际线">
  <defs>
    <linearGradient id="bg" x1="0" y1="0" x2="0" y2="1">
      <stop offset="0" stop-color="#0d1a2b"/>
      <stop offset="1" stop-color="#0a1320"/>
    </linearGradient>
  </defs>
  <rect width="1600" height="900" fill="url(#bg)"/>
  <circle cx="1180" cy="300" r="120" fill="none" stroke="#c6a865" stroke-width="1.5" opacity="0.55"/>
  <g fill="none" stroke="#c6a865" stroke-width="2" opacity="0.85">
    <rect x="120" y="560" width="120" height="300"/>
    <rect x="270" y="470" width="90" height="390"/>
    <rect x="390" y="600" width="70" height="260"/>
    <rect x="490" y="400" width="130" height="460"/>
    <rect x="650" y="520" width="80" height="340"/>
    <rect x="760" y="330" width="110" height="530"/>
    <rect x="900" y="560" width="70" height="300"/>
    <rect x="1000" y="450" width="120" height="410"/>
    <rect x="1150" y="600" width="90" height="260"/>
    <rect x="1270" y="500" width="110" height="360"/>
    <rect x="1410" y="580" width="80" height="280"/>
  </g>
  <g stroke="#c6a865" stroke-width="1" opacity="0.35">
    <line x1="520" y1="440" x2="600" y2="440"/>
    <line x1="520" y1="490" x2="600" y2="490"/>
    <line x1="790" y1="370" x2="840" y2="370"/>
    <line x1="790" y1="430" x2="840" y2="430"/>
    <line x1="1030" y1="490" x2="1090" y2="490"/>
  </g>
  <line x1="0" y1="860" x2="1600" y2="860" stroke="#c6a865" stroke-width="1.5" opacity="0.6"/>
</svg>
